<?xml version="1.0" encoding="utf-8" standalone="no"?>
<!DOCTYPE svg PUBLIC "-//W3C//DTD SVG 1.1//EN"
  "http://www.w3.org/Graphics/SVG/1.1/DTD/svg11.dtd">
<svg xmlns:xlink="http://www.w3.org/1999/xlink" width="460.8pt" height="345.6pt" viewBox="0 0 460.8 345.6" xmlns="http://www.w3.org/2000/svg" version="1.1">
 <metadata>
  <rdf:RDF xmlns:dc="http://purl.org/dc/elements/1.1/" xmlns:cc="http://creativecommons.org/ns#" xmlns:rdf="http://www.w3.org/1999/02/22-rdf-syntax-ns#">
   <cc:Work>
    <dc:type rdf:resource="http://purl.org/dc/dcmitype/StillImage"/>
    <dc:date>2024-06-11T16:28:56.934009</dc:date>
    <dc:format>image/svg+xml</dc:format>
    <dc:creator>
     <cc:Agent>
      <dc:title>Matplotlib v3.8.3, https://matplotlib.org/</dc:title>
     </cc:Agent>
    </dc:creator>
   </cc:Work>
  </rdf:RDF>
 </metadata>
 <defs>
  <style type="text/css">*{stroke-linejoin: round; stroke-linecap: butt}</style>
 </defs>
 <g id="figure_1">
  <g id="patch_1">
   <path d="M 0 345.6
L 460.8 345.6
L 460.8 0
L 0 0
z
" style="fill: #ffffff"/>
  </g>
  <g id="axes_1">
   <g id="patch_2">
    <path d="M 57.6 307.584
L 414.72 307.584
L 414.72 41.472
L 57.6 41.472
z
" style="fill: #ffffff"/>
   </g>
   <g id="matplotlib.axis_1">
    <g id="xtick_1">
     <g id="line2d_1">
      <defs>
       <path id="m30e48ae07d" d="M 0 0
L 0 3.5
" style="stroke: #000000; stroke-width: 0.8"/>
      </defs>
      <g>
       <use xlink:href="#m30e48ae07d" x="57.6" y="307.584" style="stroke: #000000; stroke-width: 0.8"/>
      </g>
     </g>
     <g id="text_1">
      <!-- $\mathdefault{10^{1}}$ -->
      <g transform="translate(48.8 322.182437) scale(0.1 -0.1)">
       <defs>
        <path id="DejaVuSans-31" d="M 794 531
L 1825 531
L 1825 4091
L 703 3866
L 703 4441
L 1819 4666
L 2450 4666
L 2450 531
L 3481 531
L 3481 0
L 794 0
L 794 531
z
" transform="scale(0.015625)"/>
        <path id="DejaVuSans-30" d="M 2034 4250
Q 1547 4250 1301 3770
Q 1056 3291 1056 2328
Q 1056 1369 1301 889
Q 1547 409 2034 409
Q 2525 409 2770 889
Q 3016 1369 3016 2328
Q 3016 3291 2770 3770
Q 2525 4250 2034 4250
z
M 2034 4750
Q 2819 4750 3233 4129
Q 3647 3509 3647 2328
Q 3647 1150 3233 529
Q 2819 -91 2034 -91
Q 1250 -91 836 529
Q 422 1150 422 2328
Q 422 3509 836 4129
Q 1250 4750 2034 4750
z
" transform="scale(0.015625)"/>
       </defs>
       <use xlink:href="#DejaVuSans-31" transform="translate(0 0.684375)"/>
       <use xlink:href="#DejaVuSans-30" transform="translate(63.623047 0.684375)"/>
       <use xlink:href="#DejaVuSans-31" transform="translate(128.203125 38.965625) scale(0.7)"/>
      </g>
     </g>
    </g>
    <g id="xtick_2">
     <g id="line2d_2">
      <g>
       <use xlink:href="#m30e48ae07d" x="146.88" y="307.584" style="stroke: #000000; stroke-width: 0.8"/>
      </g>
     </g>
     <g id="text_2">
      <!-- $\mathdefault{10^{2}}$ -->
      <g transform="translate(138.08 322.182437) scale(0.1 -0.1)">
       <defs>
        <path id="DejaVuSans-32" d="M 1228 531
L 3431 531
L 3431 0
L 469 0
L 469 531
Q 828 903 1448 1529
Q 2069 2156 2228 2338
Q 2531 2678 2651 2914
Q 2772 3150 2772 3378
Q 2772 3750 2511 3984
Q 2250 4219 1831 4219
Q 1534 4219 1204 4116
Q 875 4013 500 3803
L 500 4441
Q 881 4594 1212 4672
Q 1544 4750 1819 4750
Q 2544 4750 2975 4387
Q 3406 4025 3406 3419
Q 3406 3131 3298 2873
Q 3191 2616 2906 2266
Q 2828 2175 2409 1742
Q 1991 1309 1228 531
z
" transform="scale(0.015625)"/>
       </defs>
       <use xlink:href="#DejaVuSans-31" transform="translate(0 0.765625)"/>
       <use xlink:href="#DejaVuSans-30" transform="translate(63.623047 0.765625)"/>
       <use xlink:href="#DejaVuSans-32" transform="translate(128.203125 39.046875) scale(0.7)"/>
      </g>
     </g>
    </g>
    <g id="xtick_3">
     <g id="line2d_3">
      <g>
       <use xlink:href="#m30e48ae07d" x="236.16" y="307.584" style="stroke: #000000; stroke-width: 0.8"/>
      </g>
     </g>
     <g id="text_3">
      <!-- $\mathdefault{10^{3}}$ -->
      <g transform="translate(227.36 322.182437) scale(0.1 -0.1)">
       <defs>
        <path id="DejaVuSans-33" d="M 2597 2516
Q 3050 2419 3304 2112
Q 3559 1806 3559 1356
Q 3559 666 3084 287
Q 2609 -91 1734 -91
Q 1441 -91 1130 -33
Q 819 25 488 141
L 488 750
Q 750 597 1062 519
Q 1375 441 1716 441
Q 2309 441 2620 675
Q 2931 909 2931 1356
Q 2931 1769 2642 2001
Q 2353 2234 1838 2234
L 1294 2234
L 1294 2753
L 1863 2753
Q 2328 2753 2575 2939
Q 2822 3125 2822 3475
Q 2822 3834 2567 4026
Q 2313 4219 1838 4219
Q 1578 4219 1281 4162
Q 984 4106 628 3988
L 628 4550
Q 988 4650 1302 4700
Q 1616 4750 1894 4750
Q 2613 4750 3031 4423
Q 3450 4097 3450 3541
Q 3450 3153 3228 2886
Q 3006 2619 2597 2516
z
" transform="scale(0.015625)"/>
       </defs>
       <use xlink:href="#DejaVuSans-31" transform="translate(0 0.765625)"/>
       <use xlink:href="#DejaVuSans-30" transform="translate(63.623047 0.765625)"/>
       <use xlink:href="#DejaVuSans-33" transform="translate(128.203125 39.046875) scale(0.7)"/>
      </g>
     </g>
    </g>
    <g id="xtick_4">
     <g id="line2d_4">
      <g>
       <use xlink:href="#m30e48ae07d" x="325.44" y="307.584" style="stroke: #000000; stroke-width: 0.8"/>
      </g>
     </g>
     <g id="text_4">
      <!-- $\mathdefault{10^{4}}$ -->
      <g transform="translate(316.64 322.182437) scale(0.1 -0.1)">
       <defs>
        <path id="DejaVuSans-34" d="M 2419 4116
L 825 1625
L 2419 1625
L 2419 4116
z
M 2253 4666
L 3047 4666
L 3047 1625
L 3713 1625
L 3713 1100
L 3047 1100
L 3047 0
L 2419 0
L 2419 1100
L 313 1100
L 313 1709
L 2253 4666
z
" transform="scale(0.015625)"/>
       </defs>
       <use xlink:href="#DejaVuSans-31" transform="translate(0 0.684375)"/>
       <use xlink:href="#DejaVuSans-30" transform="translate(63.623047 0.684375)"/>
       <use xlink:href="#DejaVuSans-34" transform="translate(128.203125 38.965625) scale(0.7)"/>
      </g>
     </g>
    </g>
    <g id="xtick_5">
     <g id="line2d_5">
      <g>
       <use xlink:href="#m30e48ae07d" x="414.72" y="307.584" style="stroke: #000000; stroke-width: 0.8"/>
      </g>
     </g>
     <g id="text_5">
      <!-- $\mathdefault{10^{5}}$ -->
      <g transform="translate(405.92 322.182437) scale(0.1 -0.1)">
       <defs>
        <path id="DejaVuSans-35" d="M 691 4666
L 3169 4666
L 3169 4134
L 1269 4134
L 1269 2991
Q 1406 3038 1543 3061
Q 1681 3084 1819 3084
Q 2600 3084 3056 2656
Q 3513 2228 3513 1497
Q 3513 744 3044 326
Q 2575 -91 1722 -91
Q 1428 -91 1123 -41
Q 819 9 494 109
L 494 744
Q 775 591 1075 516
Q 1375 441 1709 441
Q 2250 441 2565 725
Q 2881 1009 2881 1497
Q 2881 1984 2565 2268
Q 2250 2553 1709 2553
Q 1456 2553 1204 2497
Q 953 2441 691 2322
L 691 4666
z
" transform="scale(0.015625)"/>
       </defs>
       <use xlink:href="#DejaVuSans-31" transform="translate(0 0.684375)"/>
       <use xlink:href="#DejaVuSans-30" transform="translate(63.623047 0.684375)"/>
       <use xlink:href="#DejaVuSans-35" transform="translate(128.203125 38.965625) scale(0.7)"/>
      </g>
     </g>
    </g>
    <g id="xtick_6">
     <g id="line2d_6">
      <defs>
       <path id="m043d058e32" d="M 0 0
L 0 2
" style="stroke: #000000; stroke-width: 0.6"/>
      </defs>
      <g>
       <use xlink:href="#m043d058e32" x="84.475958" y="307.584" style="stroke: #000000; stroke-width: 0.6"/>
      </g>
     </g>
    </g>
    <g id="xtick_7">
     <g id="line2d_7">
      <g>
       <use xlink:href="#m043d058e32" x="100.197386" y="307.584" style="stroke: #000000; stroke-width: 0.6"/>
      </g>
     </g>
    </g>
    <g id="xtick_8">
     <g id="line2d_8">
      <g>
       <use xlink:href="#m043d058e32" x="111.351916" y="307.584" style="stroke: #000000; stroke-width: 0.6"/>
      </g>
     </g>
    </g>
    <g id="xtick_9">
     <g id="line2d_9">
      <g>
       <use xlink:href="#m043d058e32" x="120.004042" y="307.584" style="stroke: #000000; stroke-width: 0.6"/>
      </g>
     </g>
    </g>
    <g id="xtick_10">
     <g id="line2d_10">
      <g>
       <use xlink:href="#m043d058e32" x="127.073344" y="307.584" style="stroke: #000000; stroke-width: 0.6"/>
      </g>
     </g>
    </g>
    <g id="xtick_11">
     <g id="line2d_11">
      <g>
       <use xlink:href="#m043d058e32" x="133.050353" y="307.584" style="stroke: #000000; stroke-width: 0.6"/>
      </g>
     </g>
    </g>
    <g id="xtick_12">
     <g id="line2d_12">
      <g>
       <use xlink:href="#m043d058e32" x="138.227874" y="307.584" style="stroke: #000000; stroke-width: 0.6"/>
      </g>
     </g>
    </g>
    <g id="xtick_13">
     <g id="line2d_13">
      <g>
       <use xlink:href="#m043d058e32" x="142.794771" y="307.584" style="stroke: #000000; stroke-width: 0.6"/>
      </g>
     </g>
    </g>
    <g id="xtick_14">
     <g id="line2d_14">
      <g>
       <use xlink:href="#m043d058e32" x="173.755958" y="307.584" style="stroke: #000000; stroke-width: 0.6"/>
      </g>
     </g>
    </g>
    <g id="xtick_15">
     <g id="line2d_15">
      <g>
       <use xlink:href="#m043d058e32" x="189.477386" y="307.584" style="stroke: #000000; stroke-width: 0.6"/>
      </g>
     </g>
    </g>
    <g id="xtick_16">
     <g id="line2d_16">
      <g>
       <use xlink:href="#m043d058e32" x="200.631916" y="307.584" style="stroke: #000000; stroke-width: 0.6"/>
      </g>
     </g>
    </g>
    <g id="xtick_17">
     <g id="line2d_17">
      <g>
       <use xlink:href="#m043d058e32" x="209.284042" y="307.584" style="stroke: #000000; stroke-width: 0.6"/>
      </g>
     </g>
    </g>
    <g id="xtick_18">
     <g id="line2d_18">
      <g>
       <use xlink:href="#m043d058e32" x="216.353344" y="307.584" style="stroke: #000000; stroke-width: 0.6"/>
      </g>
     </g>
    </g>
    <g id="xtick_19">
     <g id="line2d_19">
      <g>
       <use xlink:href="#m043d058e32" x="222.330353" y="307.584" style="stroke: #000000; stroke-width: 0.6"/>
      </g>
     </g>
    </g>
    <g id="xtick_20">
     <g id="line2d_20">
      <g>
       <use xlink:href="#m043d058e32" x="227.507874" y="307.584" style="stroke: #000000; stroke-width: 0.6"/>
      </g>
     </g>
    </g>
    <g id="xtick_21">
     <g id="line2d_21">
      <g>
       <use xlink:href="#m043d058e32" x="232.074771" y="307.584" style="stroke: #000000; stroke-width: 0.6"/>
      </g>
     </g>
    </g>
    <g id="xtick_22">
     <g id="line2d_22">
      <g>
       <use xlink:href="#m043d058e32" x="263.035958" y="307.584" style="stroke: #000000; stroke-width: 0.6"/>
      </g>
     </g>
    </g>
    <g id="xtick_23">
     <g id="line2d_23">
      <g>
       <use xlink:href="#m043d058e32" x="278.757386" y="307.584" style="stroke: #000000; stroke-width: 0.6"/>
      </g>
     </g>
    </g>
    <g id="xtick_24">
     <g id="line2d_24">
      <g>
       <use xlink:href="#m043d058e32" x="289.911916" y="307.584" style="stroke: #000000; stroke-width: 0.6"/>
      </g>
     </g>
    </g>
    <g id="xtick_25">
     <g id="line2d_25">
      <g>
       <use xlink:href="#m043d058e32" x="298.564042" y="307.584" style="stroke: #000000; stroke-width: 0.6"/>
      </g>
     </g>
    </g>
    <g id="xtick_26">
     <g id="line2d_26">
      <g>
       <use xlink:href="#m043d058e32" x="305.633344" y="307.584" style="stroke: #000000; stroke-width: 0.6"/>
      </g>
     </g>
    </g>
    <g id="xtick_27">
     <g id="line2d_27">
      <g>
       <use xlink:href="#m043d058e32" x="311.610353" y="307.584" style="stroke: #000000; stroke-width: 0.6"/>
      </g>
     </g>
    </g>
    <g id="xtick_28">
     <g id="line2d_28">
      <g>
       <use xlink:href="#m043d058e32" x="316.787874" y="307.584" style="stroke: #000000; stroke-width: 0.6"/>
      </g>
     </g>
    </g>
    <g id="xtick_29">
     <g id="line2d_29">
      <g>
       <use xlink:href="#m043d058e32" x="321.354771" y="307.584" style="stroke: #000000; stroke-width: 0.6"/>
      </g>
     </g>
    </g>
    <g id="xtick_30">
     <g id="line2d_30">
      <g>
       <use xlink:href="#m043d058e32" x="352.315958" y="307.584" style="stroke: #000000; stroke-width: 0.6"/>
      </g>
     </g>
    </g>
    <g id="xtick_31">
     <g id="line2d_31">
      <g>
       <use xlink:href="#m043d058e32" x="368.037386" y="307.584" style="stroke: #000000; stroke-width: 0.6"/>
      </g>
     </g>
    </g>
    <g id="xtick_32">
     <g id="line2d_32">
      <g>
       <use xlink:href="#m043d058e32" x="379.191916" y="307.584" style="stroke: #000000; stroke-width: 0.6"/>
      </g>
     </g>
    </g>
    <g id="xtick_33">
     <g id="line2d_33">
      <g>
       <use xlink:href="#m043d058e32" x="387.844042" y="307.584" style="stroke: #000000; stroke-width: 0.6"/>
      </g>
     </g>
    </g>
    <g id="xtick_34">
     <g id="line2d_34">
      <g>
       <use xlink:href="#m043d058e32" x="394.913344" y="307.584" style="stroke: #000000; stroke-width: 0.6"/>
      </g>
     </g>
    </g>
    <g id="xtick_35">
     <g id="line2d_35">
      <g>
       <use xlink:href="#m043d058e32" x="400.890353" y="307.584" style="stroke: #000000; stroke-width: 0.6"/>
      </g>
     </g>
    </g>
    <g id="xtick_36">
     <g id="line2d_36">
      <g>
       <use xlink:href="#m043d058e32" x="406.067874" y="307.584" style="stroke: #000000; stroke-width: 0.6"/>
      </g>
     </g>
    </g>
    <g id="xtick_37">
     <g id="line2d_37">
      <g>
       <use xlink:href="#m043d058e32" x="410.634771" y="307.584" style="stroke: #000000; stroke-width: 0.6"/>
      </g>
     </g>
    </g>
    <g id="text_6">
     <!-- Luminosity distance (Mpc) -->
     <g transform="translate(170.388125 335.860562) scale(0.1 -0.1)">
      <defs>
       <path id="DejaVuSans-4c" d="M 628 4666
L 1259 4666
L 1259 531
L 3531 531
L 3531 0
L 628 0
L 628 4666
z
" transform="scale(0.015625)"/>
       <path id="DejaVuSans-75" d="M 544 1381
L 544 3500
L 1119 3500
L 1119 1403
Q 1119 906 1312 657
Q 1506 409 1894 409
Q 2359 409 2629 706
Q 2900 1003 2900 1516
L 2900 3500
L 3475 3500
L 3475 0
L 2900 0
L 2900 538
Q 2691 219 2414 64
Q 2138 -91 1772 -91
Q 1169 -91 856 284
Q 544 659 544 1381
z
M 1991 3584
L 1991 3584
z
" transform="scale(0.015625)"/>
       <path id="DejaVuSans-6d" d="M 3328 2828
Q 3544 3216 3844 3400
Q 4144 3584 4550 3584
Q 5097 3584 5394 3201
Q 5691 2819 5691 2113
L 5691 0
L 5113 0
L 5113 2094
Q 5113 2597 4934 2840
Q 4756 3084 4391 3084
Q 3944 3084 3684 2787
Q 3425 2491 3425 1978
L 3425 0
L 2847 0
L 2847 2094
Q 2847 2600 2669 2842
Q 2491 3084 2119 3084
Q 1678 3084 1418 2786
Q 1159 2488 1159 1978
L 1159 0
L 581 0
L 581 3500
L 1159 3500
L 1159 2956
Q 1356 3278 1631 3431
Q 1906 3584 2284 3584
Q 2666 3584 2933 3390
Q 3200 3197 3328 2828
z
" transform="scale(0.015625)"/>
       <path id="DejaVuSans-69" d="M 603 3500
L 1178 3500
L 1178 0
L 603 0
L 603 3500
z
M 603 4863
L 1178 4863
L 1178 4134
L 603 4134
L 603 4863
z
" transform="scale(0.015625)"/>
       <path id="DejaVuSans-6e" d="M 3513 2113
L 3513 0
L 2938 0
L 2938 2094
Q 2938 2591 2744 2837
Q 2550 3084 2163 3084
Q 1697 3084 1428 2787
Q 1159 2491 1159 1978
L 1159 0
L 581 0
L 581 3500
L 1159 3500
L 1159 2956
Q 1366 3272 1645 3428
Q 1925 3584 2291 3584
Q 2894 3584 3203 3211
Q 3513 2838 3513 2113
z
" transform="scale(0.015625)"/>
       <path id="DejaVuSans-6f" d="M 1959 3097
Q 1497 3097 1228 2736
Q 959 2375 959 1747
Q 959 1119 1226 758
Q 1494 397 1959 397
Q 2419 397 2687 759
Q 2956 1122 2956 1747
Q 2956 2369 2687 2733
Q 2419 3097 1959 3097
z
M 1959 3584
Q 2709 3584 3137 3096
Q 3566 2609 3566 1747
Q 3566 888 3137 398
Q 2709 -91 1959 -91
Q 1206 -91 779 398
Q 353 888 353 1747
Q 353 2609 779 3096
Q 1206 3584 1959 3584
z
" transform="scale(0.015625)"/>
       <path id="DejaVuSans-73" d="M 2834 3397
L 2834 2853
Q 2591 2978 2328 3040
Q 2066 3103 1784 3103
Q 1356 3103 1142 2972
Q 928 2841 928 2578
Q 928 2378 1081 2264
Q 1234 2150 1697 2047
L 1894 2003
Q 2506 1872 2764 1633
Q 3022 1394 3022 966
Q 3022 478 2636 193
Q 2250 -91 1575 -91
Q 1294 -91 989 -36
Q 684 19 347 128
L 347 722
Q 666 556 975 473
Q 1284 391 1588 391
Q 1994 391 2212 530
Q 2431 669 2431 922
Q 2431 1156 2273 1281
Q 2116 1406 1581 1522
L 1381 1569
Q 847 1681 609 1914
Q 372 2147 372 2553
Q 372 3047 722 3315
Q 1072 3584 1716 3584
Q 2034 3584 2315 3537
Q 2597 3491 2834 3397
z
" transform="scale(0.015625)"/>
       <path id="DejaVuSans-74" d="M 1172 4494
L 1172 3500
L 2356 3500
L 2356 3053
L 1172 3053
L 1172 1153
Q 1172 725 1289 603
Q 1406 481 1766 481
L 2356 481
L 2356 0
L 1766 0
Q 1100 0 847 248
Q 594 497 594 1153
L 594 3053
L 172 3053
L 172 3500
L 594 3500
L 594 4494
L 1172 4494
z
" transform="scale(0.015625)"/>
       <path id="DejaVuSans-79" d="M 2059 -325
Q 1816 -950 1584 -1140
Q 1353 -1331 966 -1331
L 506 -1331
L 506 -850
L 844 -850
Q 1081 -850 1212 -737
Q 1344 -625 1503 -206
L 1606 56
L 191 3500
L 800 3500
L 1894 763
L 2988 3500
L 3597 3500
L 2059 -325
z
" transform="scale(0.015625)"/>
       <path id="DejaVuSans-20" transform="scale(0.015625)"/>
       <path id="DejaVuSans-64" d="M 2906 2969
L 2906 4863
L 3481 4863
L 3481 0
L 2906 0
L 2906 525
Q 2725 213 2448 61
Q 2172 -91 1784 -91
Q 1150 -91 751 415
Q 353 922 353 1747
Q 353 2572 751 3078
Q 1150 3584 1784 3584
Q 2172 3584 2448 3432
Q 2725 3281 2906 2969
z
M 947 1747
Q 947 1113 1208 752
Q 1469 391 1925 391
Q 2381 391 2643 752
Q 2906 1113 2906 1747
Q 2906 2381 2643 2742
Q 2381 3103 1925 3103
Q 1469 3103 1208 2742
Q 947 2381 947 1747
z
" transform="scale(0.015625)"/>
       <path id="DejaVuSans-61" d="M 2194 1759
Q 1497 1759 1228 1600
Q 959 1441 959 1056
Q 959 750 1161 570
Q 1363 391 1709 391
Q 2188 391 2477 730
Q 2766 1069 2766 1631
L 2766 1759
L 2194 1759
z
M 3341 1997
L 3341 0
L 2766 0
L 2766 531
Q 2569 213 2275 61
Q 1981 -91 1556 -91
Q 1019 -91 701 211
Q 384 513 384 1019
Q 384 1609 779 1909
Q 1175 2209 1959 2209
L 2766 2209
L 2766 2266
Q 2766 2663 2505 2880
Q 2244 3097 1772 3097
Q 1472 3097 1187 3025
Q 903 2953 641 2809
L 641 3341
Q 956 3463 1253 3523
Q 1550 3584 1831 3584
Q 2591 3584 2966 3190
Q 3341 2797 3341 1997
z
" transform="scale(0.015625)"/>
       <path id="DejaVuSans-63" d="M 3122 3366
L 3122 2828
Q 2878 2963 2633 3030
Q 2388 3097 2138 3097
Q 1578 3097 1268 2742
Q 959 2388 959 1747
Q 959 1106 1268 751
Q 1578 397 2138 397
Q 2388 397 2633 464
Q 2878 531 3122 666
L 3122 134
Q 2881 22 2623 -34
Q 2366 -91 2075 -91
Q 1284 -91 818 406
Q 353 903 353 1747
Q 353 2603 823 3093
Q 1294 3584 2113 3584
Q 2378 3584 2631 3529
Q 2884 3475 3122 3366
z
" transform="scale(0.015625)"/>
       <path id="DejaVuSans-65" d="M 3597 1894
L 3597 1613
L 953 1613
Q 991 1019 1311 708
Q 1631 397 2203 397
Q 2534 397 2845 478
Q 3156 559 3463 722
L 3463 178
Q 3153 47 2828 -22
Q 2503 -91 2169 -91
Q 1331 -91 842 396
Q 353 884 353 1716
Q 353 2575 817 3079
Q 1281 3584 2069 3584
Q 2775 3584 3186 3129
Q 3597 2675 3597 1894
z
M 3022 2063
Q 3016 2534 2758 2815
Q 2500 3097 2075 3097
Q 1594 3097 1305 2825
Q 1016 2553 972 2059
L 3022 2063
z
" transform="scale(0.015625)"/>
       <path id="DejaVuSans-28" d="M 1984 4856
Q 1566 4138 1362 3434
Q 1159 2731 1159 2009
Q 1159 1288 1364 580
Q 1569 -128 1984 -844
L 1484 -844
Q 1016 -109 783 600
Q 550 1309 550 2009
Q 550 2706 781 3412
Q 1013 4119 1484 4856
L 1984 4856
z
" transform="scale(0.015625)"/>
       <path id="DejaVuSans-4d" d="M 628 4666
L 1569 4666
L 2759 1491
L 3956 4666
L 4897 4666
L 4897 0
L 4281 0
L 4281 4097
L 3078 897
L 2444 897
L 1241 4097
L 1241 0
L 628 0
L 628 4666
z
" transform="scale(0.015625)"/>
       <path id="DejaVuSans-70" d="M 1159 525
L 1159 -1331
L 581 -1331
L 581 3500
L 1159 3500
L 1159 2969
Q 1341 3281 1617 3432
Q 1894 3584 2278 3584
Q 2916 3584 3314 3078
Q 3713 2572 3713 1747
Q 3713 922 3314 415
Q 2916 -91 2278 -91
Q 1894 -91 1617 61
Q 1341 213 1159 525
z
M 3116 1747
Q 3116 2381 2855 2742
Q 2594 3103 2138 3103
Q 1681 3103 1420 2742
Q 1159 2381 1159 1747
Q 1159 1113 1420 752
Q 1681 391 2138 391
Q 2594 391 2855 752
Q 3116 1113 3116 1747
z
" transform="scale(0.015625)"/>
       <path id="DejaVuSans-29" d="M 513 4856
L 1013 4856
Q 1481 4119 1714 3412
Q 1947 2706 1947 2009
Q 1947 1309 1714 600
Q 1481 -109 1013 -844
L 513 -844
Q 928 -128 1133 580
Q 1338 1288 1338 2009
Q 1338 2731 1133 3434
Q 928 4138 513 4856
z
" transform="scale(0.015625)"/>
      </defs>
      <use xlink:href="#DejaVuSans-4c"/>
      <use xlink:href="#DejaVuSans-75" x="53.962891"/>
      <use xlink:href="#DejaVuSans-6d" x="117.341797"/>
      <use xlink:href="#DejaVuSans-69" x="214.753906"/>
      <use xlink:href="#DejaVuSans-6e" x="242.537109"/>
      <use xlink:href="#DejaVuSans-6f" x="305.916016"/>
      <use xlink:href="#DejaVuSans-73" x="367.097656"/>
      <use xlink:href="#DejaVuSans-69" x="419.197266"/>
      <use xlink:href="#DejaVuSans-74" x="446.980469"/>
      <use xlink:href="#DejaVuSans-79" x="486.189453"/>
      <use xlink:href="#DejaVuSans-20" x="545.369141"/>
      <use xlink:href="#DejaVuSans-64" x="577.15625"/>
      <use xlink:href="#DejaVuSans-69" x="640.632812"/>
      <use xlink:href="#DejaVuSans-73" x="668.416016"/>
      <use xlink:href="#DejaVuSans-74" x="720.515625"/>
      <use xlink:href="#DejaVuSans-61" x="759.724609"/>
      <use xlink:href="#DejaVuSans-6e" x="821.003906"/>
      <use xlink:href="#DejaVuSans-63" x="884.382812"/>
      <use xlink:href="#DejaVuSans-65" x="939.363281"/>
      <use xlink:href="#DejaVuSans-20" x="1000.886719"/>
      <use xlink:href="#DejaVuSans-28" x="1032.673828"/>
      <use xlink:href="#DejaVuSans-4d" x="1071.6875"/>
      <use xlink:href="#DejaVuSans-70" x="1157.966797"/>
      <use xlink:href="#DejaVuSans-63" x="1221.443359"/>
      <use xlink:href="#DejaVuSans-29" x="1276.423828"/>
     </g>
    </g>
   </g>
   <g id="matplotlib.axis_2">
    <g id="ytick_1">
     <g id="line2d_38">
      <defs>
       <path id="mbcacf7a95b" d="M 0 0
L -3.5 0
" style="stroke: #000000; stroke-width: 0.8"/>
      </defs>
      <g>
       <use xlink:href="#mbcacf7a95b" x="57.6" y="307.584" style="stroke: #000000; stroke-width: 0.8"/>
      </g>
     </g>
     <g id="text_7">
      <!-- 0.00 -->
      <g transform="translate(28.334375 311.383219) scale(0.1 -0.1)">
       <defs>
        <path id="DejaVuSans-2e" d="M 684 794
L 1344 794
L 1344 0
L 684 0
L 684 794
z
" transform="scale(0.015625)"/>
       </defs>
       <use xlink:href="#DejaVuSans-30"/>
       <use xlink:href="#DejaVuSans-2e" x="63.623047"/>
       <use xlink:href="#DejaVuSans-30" x="95.410156"/>
       <use xlink:href="#DejaVuSans-30" x="159.033203"/>
      </g>
     </g>
    </g>
    <g id="ytick_2">
     <g id="line2d_39">
      <g>
       <use xlink:href="#mbcacf7a95b" x="57.6" y="241.056" style="stroke: #000000; stroke-width: 0.8"/>
      </g>
     </g>
     <g id="text_8">
      <!-- 0.25 -->
      <g transform="translate(28.334375 244.855219) scale(0.1 -0.1)">
       <use xlink:href="#DejaVuSans-30"/>
       <use xlink:href="#DejaVuSans-2e" x="63.623047"/>
       <use xlink:href="#DejaVuSans-32" x="95.410156"/>
       <use xlink:href="#DejaVuSans-35" x="159.033203"/>
      </g>
     </g>
    </g>
    <g id="ytick_3">
     <g id="line2d_40">
      <g>
       <use xlink:href="#mbcacf7a95b" x="57.6" y="174.528" style="stroke: #000000; stroke-width: 0.8"/>
      </g>
     </g>
     <g id="text_9">
      <!-- 0.50 -->
      <g transform="translate(28.334375 178.327219) scale(0.1 -0.1)">
       <use xlink:href="#DejaVuSans-30"/>
       <use xlink:href="#DejaVuSans-2e" x="63.623047"/>
       <use xlink:href="#DejaVuSans-35" x="95.410156"/>
       <use xlink:href="#DejaVuSans-30" x="159.033203"/>
      </g>
     </g>
    </g>
    <g id="ytick_4">
     <g id="line2d_41">
      <g>
       <use xlink:href="#mbcacf7a95b" x="57.6" y="108" style="stroke: #000000; stroke-width: 0.8"/>
      </g>
     </g>
     <g id="text_10">
      <!-- 0.75 -->
      <g transform="translate(28.334375 111.799219) scale(0.1 -0.1)">
       <defs>
        <path id="DejaVuSans-37" d="M 525 4666
L 3525 4666
L 3525 4397
L 1831 0
L 1172 0
L 2766 4134
L 525 4134
L 525 4666
z
" transform="scale(0.015625)"/>
       </defs>
       <use xlink:href="#DejaVuSans-30"/>
       <use xlink:href="#DejaVuSans-2e" x="63.623047"/>
       <use xlink:href="#DejaVuSans-37" x="95.410156"/>
       <use xlink:href="#DejaVuSans-35" x="159.033203"/>
      </g>
     </g>
    </g>
    <g id="ytick_5">
     <g id="line2d_42">
      <g>
       <use xlink:href="#mbcacf7a95b" x="57.6" y="41.472" style="stroke: #000000; stroke-width: 0.8"/>
      </g>
     </g>
     <g id="text_11">
      <!-- 1.00 -->
      <g transform="translate(28.334375 45.271219) scale(0.1 -0.1)">
       <use xlink:href="#DejaVuSans-31"/>
       <use xlink:href="#DejaVuSans-2e" x="63.623047"/>
       <use xlink:href="#DejaVuSans-30" x="95.410156"/>
       <use xlink:href="#DejaVuSans-30" x="159.033203"/>
      </g>
     </g>
    </g>
    <g id="text_12">
     <!-- Cumulative fraction of events -->
     <g transform="translate(22.254687 248.704563) rotate(-90) scale(0.1 -0.1)">
      <defs>
       <path id="DejaVuSans-43" d="M 4122 4306
L 4122 3641
Q 3803 3938 3442 4084
Q 3081 4231 2675 4231
Q 1875 4231 1450 3742
Q 1025 3253 1025 2328
Q 1025 1406 1450 917
Q 1875 428 2675 428
Q 3081 428 3442 575
Q 3803 722 4122 1019
L 4122 359
Q 3791 134 3420 21
Q 3050 -91 2638 -91
Q 1578 -91 968 557
Q 359 1206 359 2328
Q 359 3453 968 4101
Q 1578 4750 2638 4750
Q 3056 4750 3426 4639
Q 3797 4528 4122 4306
z
" transform="scale(0.015625)"/>
       <path id="DejaVuSans-6c" d="M 603 4863
L 1178 4863
L 1178 0
L 603 0
L 603 4863
z
" transform="scale(0.015625)"/>
       <path id="DejaVuSans-76" d="M 191 3500
L 800 3500
L 1894 563
L 2988 3500
L 3597 3500
L 2284 0
L 1503 0
L 191 3500
z
" transform="scale(0.015625)"/>
       <path id="DejaVuSans-66" d="M 2375 4863
L 2375 4384
L 1825 4384
Q 1516 4384 1395 4259
Q 1275 4134 1275 3809
L 1275 3500
L 2222 3500
L 2222 3053
L 1275 3053
L 1275 0
L 697 0
L 697 3053
L 147 3053
L 147 3500
L 697 3500
L 697 3744
Q 697 4328 969 4595
Q 1241 4863 1831 4863
L 2375 4863
z
" transform="scale(0.015625)"/>
       <path id="DejaVuSans-72" d="M 2631 2963
Q 2534 3019 2420 3045
Q 2306 3072 2169 3072
Q 1681 3072 1420 2755
Q 1159 2438 1159 1844
L 1159 0
L 581 0
L 581 3500
L 1159 3500
L 1159 2956
Q 1341 3275 1631 3429
Q 1922 3584 2338 3584
Q 2397 3584 2469 3576
Q 2541 3569 2628 3553
L 2631 2963
z
" transform="scale(0.015625)"/>
      </defs>
      <use xlink:href="#DejaVuSans-43"/>
      <use xlink:href="#DejaVuSans-75" x="69.824219"/>
      <use xlink:href="#DejaVuSans-6d" x="133.203125"/>
      <use xlink:href="#DejaVuSans-75" x="230.615234"/>
      <use xlink:href="#DejaVuSans-6c" x="293.994141"/>
      <use xlink:href="#DejaVuSans-61" x="321.777344"/>
      <use xlink:href="#DejaVuSans-74" x="383.056641"/>
      <use xlink:href="#DejaVuSans-69" x="422.265625"/>
      <use xlink:href="#DejaVuSans-76" x="450.048828"/>
      <use xlink:href="#DejaVuSans-65" x="509.228516"/>
      <use xlink:href="#DejaVuSans-20" x="570.751953"/>
      <use xlink:href="#DejaVuSans-66" x="602.539062"/>
      <use xlink:href="#DejaVuSans-72" x="637.744141"/>
      <use xlink:href="#DejaVuSans-61" x="678.857422"/>
      <use xlink:href="#DejaVuSans-63" x="740.136719"/>
      <use xlink:href="#DejaVuSans-74" x="795.117188"/>
      <use xlink:href="#DejaVuSans-69" x="834.326172"/>
      <use xlink:href="#DejaVuSans-6f" x="862.109375"/>
      <use xlink:href="#DejaVuSans-6e" x="923.291016"/>
      <use xlink:href="#DejaVuSans-20" x="986.669922"/>
      <use xlink:href="#DejaVuSans-6f" x="1018.457031"/>
      <use xlink:href="#DejaVuSans-66" x="1079.638672"/>
      <use xlink:href="#DejaVuSans-20" x="1114.84375"/>
      <use xlink:href="#DejaVuSans-65" x="1146.630859"/>
      <use xlink:href="#DejaVuSans-76" x="1208.154297"/>
      <use xlink:href="#DejaVuSans-65" x="1267.333984"/>
      <use xlink:href="#DejaVuSans-6e" x="1328.857422"/>
      <use xlink:href="#DejaVuSans-74" x="1392.236328"/>
      <use xlink:href="#DejaVuSans-73" x="1431.445312"/>
     </g>
    </g>
   </g>
   <g id="line2d_43">
    <path d="M 57.6 307.584
L 61.207273 307.584
L 64.814545 307.584
L 68.421818 307.584
L 72.029091 307.584
L 75.636364 307.584
L 79.243636 307.584
L 82.850909 307.584
L 86.458182 307.584
L 90.065455 307.584
L 93.672727 307.584
L 97.28 307.584
L 100.887273 307.584
L 104.494545 307.584
L 108.101818 307.584
L 111.709091 307.584
L 115.316364 307.584
L 118.923636 307.584
L 122.530909 307.583999
L 126.138182 307.583992
L 129.745455 307.583914
L 133.352727 307.583356
L 136.96 307.5806
L 140.567273 307.571099
L 144.174545 307.547907
L 147.781818 307.506607
L 151.389091 307.448644
L 154.996364 307.373359
L 158.603636 307.269907
L 162.210909 307.129684
L 165.818182 306.960632
L 169.425455 306.770112
L 173.032727 306.54165
L 176.64 306.247482
L 180.247273 305.870049
L 183.854545 305.388754
L 187.461818 304.760529
L 191.069091 303.941762
L 194.676364 302.91469
L 198.283636 301.661395
L 201.890909 300.12467
L 205.498182 298.227444
L 209.105455 295.923745
L 212.712727 293.186778
L 216.32 289.94788
L 219.927273 286.10407
L 223.534545 281.58692
L 227.141818 276.360383
L 230.749091 270.343857
L 234.356364 263.397043
L 237.963636 255.391394
L 241.570909 246.293744
L 245.178182 236.228666
L 248.785455 225.431443
L 252.392727 214.098043
L 256 202.362924
L 259.607273 190.407889
L 263.214545 178.420673
L 266.821818 166.452621
L 270.429091 154.450231
L 274.036364 142.405265
L 277.643636 130.442407
L 281.250909 118.804031
L 284.858182 107.748896
L 288.465455 97.477299
L 292.072727 88.139237
L 295.68 79.810416
L 299.287273 72.453464
L 302.894545 65.976073
L 306.501818 60.325854
L 310.109091 55.525881
L 313.716364 51.621886
L 317.323636 48.576991
L 320.930909 46.251748
L 324.538182 44.504536
L 328.145455 43.255638
L 331.752727 42.44251
L 335.36 41.96844
L 338.967273 41.716117
L 342.574545 41.587476
L 346.181818 41.522212
L 349.789091 41.490542
L 353.396364 41.47738
L 357.003636 41.473158
L 360.610909 41.472178
L 364.218182 41.472019
L 367.825455 41.472001
L 371.432727 41.472
L 375.04 41.472
L 378.647273 41.472
L 382.254545 41.472
L 385.861818 41.472
L 389.469091 41.472
L 393.076364 41.472
L 396.683636 41.472
L 400.290909 41.472
L 403.898182 41.472
L 407.505455 41.472
L 411.112727 41.472
L 414.72 41.472
" clip-path="url(#p70bb40b02e)" style="fill: none; stroke: #0173b2; stroke-width: 1.5; stroke-linecap: square"/>
   </g>
   <g id="line2d_44">
    <path d="M 57.6 307.584
L 61.207273 307.584
L 64.814545 307.584
L 68.421818 307.584
L 72.029091 307.584
L 75.636364 307.584
L 79.243636 307.584
L 82.850909 307.584
L 86.458182 307.584
L 90.065455 307.584
L 93.672727 307.584
L 97.28 307.584
L 100.887273 307.584
L 104.494545 307.584
L 108.101818 307.584
L 111.709091 307.584
L 115.316364 307.584
L 118.923636 307.584
L 122.530909 307.584
L 126.138182 307.584
L 129.745455 307.583997
L 133.352727 307.583954
L 136.96 307.58359
L 140.567273 307.581622
L 144.174545 307.574884
L 147.781818 307.56013
L 151.389091 307.53882
L 154.996364 307.516
L 158.603636 307.490786
L 162.210909 307.453292
L 165.818182 307.393158
L 169.425455 307.304771
L 173.032727 307.182334
L 176.64 307.023283
L 180.247273 306.831414
L 183.854545 306.588685
L 187.461818 306.247322
L 191.069091 305.772813
L 194.676364 305.15221
L 198.283636 304.357905
L 201.890909 303.352311
L 205.498182 302.128573
L 209.105455 300.703803
L 212.712727 299.051277
L 216.32 297.077846
L 219.927273 294.704837
L 223.534545 291.907161
L 227.141818 288.637337
L 230.749091 284.800845
L 234.356364 280.311101
L 237.963636 275.077975
L 241.570909 268.973742
L 245.178182 261.920996
L 248.785455 253.964401
L 252.392727 245.17167
L 256 235.546692
L 259.607273 225.094693
L 263.214545 213.873571
L 266.821818 201.955725
L 270.429091 189.477612
L 274.036364 176.73131
L 277.643636 164.066115
L 281.250909 151.671547
L 284.858182 139.533567
L 288.465455 127.62675
L 292.072727 116.10237
L 295.68 105.25653
L 299.287273 95.33619
L 302.894545 86.421198
L 306.501818 78.490309
L 310.109091 71.51223
L 313.716364 65.435849
L 317.323636 60.192473
L 320.930909 55.753263
L 324.538182 52.111763
L 328.145455 49.201961
L 331.752727 46.908234
L 335.36 45.146415
L 338.967273 43.86876
L 342.574545 43.009504
L 346.181818 42.467673
L 349.789091 42.131295
L 353.396364 41.907019
L 357.003636 41.741975
L 360.610909 41.623649
L 364.218182 41.550619
L 367.825455 41.510994
L 371.432727 41.489661
L 375.04 41.478447
L 378.647273 41.473693
L 382.254545 41.472299
L 385.861818 41.472034
L 389.469091 41.472002
L 393.076364 41.472
L 396.683636 41.472
L 400.290909 41.472
L 403.898182 41.472
L 407.505455 41.472
L 411.112727 41.472
L 414.72 41.472
" clip-path="url(#p70bb40b02e)" style="fill: none; stroke: #de8f05; stroke-width: 1.5; stroke-linecap: square"/>
   </g>
   <g id="line2d_45">
    <path d="M 57.6 307.584
L 61.207273 307.584
L 64.814545 307.584
L 68.421818 307.584
L 72.029091 307.584
L 75.636364 307.584
L 79.243636 307.584
L 82.850909 307.584
L 86.458182 307.584
L 90.065455 307.584
L 93.672727 307.584
L 97.28 307.583996
L 100.887273 307.583959
L 104.494545 307.583698
L 108.101818 307.582309
L 111.709091 307.576653
L 115.316364 307.55899
L 118.923636 307.516267
L 122.530909 307.435241
L 126.138182 307.312709
L 129.745455 307.161001
L 133.352727 306.998446
L 136.96 306.826991
L 140.567273 306.613942
L 144.174545 306.298682
L 147.781818 305.82574
L 151.389091 305.171548
L 154.996364 304.330108
L 158.603636 303.270525
L 162.210909 301.910477
L 165.818182 300.117851
L 169.425455 297.726193
L 173.032727 294.573654
L 176.64 290.570971
L 180.247273 285.738855
L 183.854545 280.134578
L 187.461818 273.705266
L 191.069091 266.253125
L 194.676364 257.60644
L 198.283636 247.790589
L 201.890909 236.95669
L 205.498182 225.185362
L 209.105455 212.458755
L 212.712727 198.792374
L 216.32 184.300976
L 219.927273 169.179657
L 223.534545 153.745262
L 227.141818 138.509737
L 230.749091 124.121245
L 234.356364 111.162144
L 237.963636 99.956006
L 241.570909 90.500395
L 245.178182 82.533679
L 248.785455 75.685334
L 252.392727 69.646558
L 256 64.283034
L 259.607273 59.609828
L 263.214545 55.648539
L 266.821818 52.326
L 270.429091 49.527118
L 274.036364 47.199416
L 277.643636 45.354189
L 281.250909 43.990821
L 284.858182 43.059063
L 288.465455 42.471792
L 292.072727 42.124363
L 295.68 41.915614
L 299.287273 41.772704
L 302.894545 41.661787
L 306.501818 41.576978
L 310.109091 41.520635
L 313.716364 41.490257
L 317.323636 41.477422
L 320.930909 41.473252
L 324.538182 41.472222
L 328.145455 41.47203
L 331.752727 41.472003
L 335.36 41.472
L 338.967273 41.472
L 342.574545 41.472
L 346.181818 41.472
L 349.789091 41.472
L 353.396364 41.472
L 357.003636 41.472
L 360.610909 41.472
L 364.218182 41.472
L 367.825455 41.472
L 371.432727 41.472
L 375.04 41.472
L 378.647273 41.472
L 382.254545 41.472
L 385.861818 41.472
L 389.469091 41.472
L 393.076364 41.472
L 396.683636 41.472
L 400.290909 41.472
L 403.898182 41.472
L 407.505455 41.472
L 411.112727 41.472
L 414.72 41.472
" clip-path="url(#p70bb40b02e)" style="fill: none; stroke-dasharray: 5.55,2.4; stroke-dashoffset: 0; stroke: #029e73; stroke-width: 1.5"/>
   </g>
   <g id="line2d_46">
    <path d="M 57.6 307.584
L 61.207273 307.584
L 64.814545 307.584
L 68.421818 307.584
L 72.029091 307.584
L 75.636364 307.584
L 79.243636 307.584
L 82.850909 307.584
L 86.458182 307.584
L 90.065455 307.584
L 93.672727 307.584
L 97.28 307.584
L 100.887273 307.584
L 104.494545 307.584
L 108.101818 307.584
L 111.709091 307.584
L 115.316364 307.584
L 118.923636 307.584
L 122.530909 307.584
L 126.138182 307.584
L 129.745455 307.584
L 133.352727 307.584
L 136.96 307.584
L 140.567273 307.584
L 144.174545 307.583999
L 147.781818 307.583996
L 151.389091 307.583976
L 154.996364 307.58388
L 158.603636 307.583463
L 162.210909 307.581905
L 165.818182 307.576818
L 169.425455 307.562356
L 173.032727 307.526524
L 176.64 307.449142
L 180.247273 307.303408
L 183.854545 307.063769
L 187.461818 306.718801
L 191.069091 306.281485
L 194.676364 305.786994
L 198.283636 305.275204
L 201.890909 304.767883
L 205.498182 304.256307
L 209.105455 303.705388
L 212.712727 303.062482
L 216.32 302.251069
L 219.927273 301.142874
L 223.534545 299.527995
L 227.141818 297.11799
L 230.749091 293.60365
L 234.356364 288.751659
L 237.963636 282.489837
L 241.570909 274.929839
L 245.178182 266.314122
L 248.785455 256.921784
L 252.392727 246.986711
L 256 236.660114
L 259.607273 226.010953
L 263.214545 215.034679
L 266.821818 203.650268
L 270.429091 191.698245
L 274.036364 178.9754
L 277.643636 165.324892
L 281.250909 150.75157
L 284.858182 135.498294
L 288.465455 120.035791
L 292.072727 104.971432
L 295.68 90.92431
L 299.287273 78.4169
L 302.894545 67.808565
L 306.501818 59.270132
L 310.109091 52.787021
L 313.716364 48.180939
L 317.323636 45.148475
L 320.930909 43.317474
L 324.538182 42.313539
L 328.145455 41.818045
L 331.752727 41.599514
L 335.36 41.513887
L 338.967273 41.484214
L 342.574545 41.475151
L 346.181818 41.472717
L 349.789091 41.472144
L 353.396364 41.472025
L 357.003636 41.472004
L 360.610909 41.472001
L 364.218182 41.472
L 367.825455 41.472
L 371.432727 41.472
L 375.04 41.472
L 378.647273 41.472
L 382.254545 41.472
L 385.861818 41.472
L 389.469091 41.472
L 393.076364 41.472
L 396.683636 41.472
L 400.290909 41.472
L 403.898182 41.472
L 407.505455 41.472
L 411.112727 41.472
L 414.72 41.472
" clip-path="url(#p70bb40b02e)" style="fill: none; stroke-dasharray: 5.55,2.4; stroke-dashoffset: 0; stroke: #0173b2; stroke-width: 1.5"/>
   </g>
   <g id="line2d_47">
    <path d="M 57.6 307.584
L 61.207273 307.584
L 64.814545 307.584
L 68.421818 307.584
L 72.029091 307.584
L 75.636364 307.584
L 79.243636 307.584
L 82.850909 307.584
L 86.458182 307.584
L 90.065455 307.584
L 93.672727 307.584
L 97.28 307.584
L 100.887273 307.584
L 104.494545 307.584
L 108.101818 307.584
L 111.709091 307.584
L 115.316364 307.584
L 118.923636 307.584
L 122.530909 307.583999
L 126.138182 307.583997
L 129.745455 307.583992
L 133.352727 307.583978
L 136.96 307.583938
L 140.567273 307.583835
L 144.174545 307.58358
L 147.781818 307.582978
L 151.389091 307.581617
L 154.996364 307.578681
L 158.603636 307.572621
L 162.210909 307.560668
L 165.818182 307.538116
L 169.425455 307.497399
L 173.032727 307.427007
L 176.64 307.310381
L 180.247273 307.124997
L 183.854545 306.841874
L 187.461818 306.425674
L 191.069091 305.835402
L 194.676364 305.025476
L 198.283636 303.946723
L 201.890909 302.546871
L 205.498182 300.770289
L 209.105455 298.557319
L 212.712727 295.844114
L 216.32 292.564369
L 219.927273 288.654187
L 223.534545 284.060578
L 227.141818 278.752609
L 230.749091 272.732769
L 234.356364 266.04501
L 237.963636 258.776054
L 241.570909 251.047857
L 245.178182 243.001516
L 248.785455 234.775449
L 252.392727 226.482603
L 256 218.191971
L 259.607273 209.918728
L 263.214545 201.625192
L 266.821818 193.232313
L 270.429091 184.639185
L 274.036364 175.746681
L 277.643636 166.480818
L 281.250909 156.811847
L 284.858182 146.766044
L 288.465455 136.42868
L 292.072727 125.938258
L 295.68 115.473617
L 299.287273 105.236555
L 302.894545 95.432914
L 306.501818 86.254695
L 310.109091 77.865018
L 313.716364 70.386849
L 317.323636 63.895907
L 320.930909 58.417901
L 324.538182 53.930116
L 328.145455 50.367212
L 331.752727 47.630616
L 335.36 45.600347
L 338.967273 44.14762
L 342.574545 43.146432
L 346.181818 42.482644
L 349.789091 42.059707
L 353.396364 41.800966
L 357.003636 41.649097
L 360.610909 41.563627
L 364.218182 41.517531
L 367.825455 41.493718
L 371.432727 41.481939
L 375.04 41.476362
L 378.647273 41.473835
L 382.254545 41.47274
L 385.861818 41.472286
L 389.469091 41.472106
L 393.076364 41.472037
L 396.683636 41.472013
L 400.290909 41.472004
L 403.898182 41.472001
L 407.505455 41.472
L 411.112727 41.472
L 414.72 41.472
" clip-path="url(#p70bb40b02e)" style="fill: none; stroke-dasharray: 5.55,2.4; stroke-dashoffset: 0; stroke: #de8f05; stroke-width: 1.5"/>
   </g>
   <g id="patch_3">
    <path d="M 57.6 307.584
L 57.6 41.472
" style="fill: none; stroke: #000000; stroke-width: 0.8; stroke-linejoin: miter; stroke-linecap: square"/>
   </g>
   <g id="patch_4">
    <path d="M 414.72 307.584
L 414.72 41.472
" style="fill: none; stroke: #000000; stroke-width: 0.8; stroke-linejoin: miter; stroke-linecap: square"/>
   </g>
   <g id="patch_5">
    <path d="M 57.6 307.584
L 414.72 307.584
" style="fill: none; stroke: #000000; stroke-width: 0.8; stroke-linejoin: miter; stroke-linecap: square"/>
   </g>
   <g id="patch_6">
    <path d="M 57.6 41.472
L 414.72 41.472
" style="fill: none; stroke: #000000; stroke-width: 0.8; stroke-linejoin: miter; stroke-linecap: square"/>
   </g>
   <g id="legend_1">
    <g id="patch_7">
     <path d="M 64.6 122.862625
L 148.726562 122.862625
Q 150.726562 122.862625 150.726562 120.862625
L 150.726562 48.472
Q 150.726562 46.472 148.726562 46.472
L 64.6 46.472
Q 62.6 46.472 62.6 48.472
L 62.6 120.862625
Q 62.6 122.862625 64.6 122.862625
z
" style="fill: #ffffff; opacity: 0.8; stroke: #cccccc; stroke-linejoin: miter"/>
    </g>
    <g id="line2d_48">
     <path d="M 66.6 54.570438
L 76.6 54.570438
L 86.6 54.570438
" style="fill: none; stroke: #000000; stroke-width: 1.5; stroke-linecap: square"/>
    </g>
    <g id="text_13">
     <!-- simulation -->
     <g transform="translate(94.6 58.070438) scale(0.1 -0.1)">
      <use xlink:href="#DejaVuSans-73"/>
      <use xlink:href="#DejaVuSans-69" x="52.099609"/>
      <use xlink:href="#DejaVuSans-6d" x="79.882812"/>
      <use xlink:href="#DejaVuSans-75" x="177.294922"/>
      <use xlink:href="#DejaVuSans-6c" x="240.673828"/>
      <use xlink:href="#DejaVuSans-61" x="268.457031"/>
      <use xlink:href="#DejaVuSans-74" x="329.736328"/>
      <use xlink:href="#DejaVuSans-69" x="368.945312"/>
      <use xlink:href="#DejaVuSans-6f" x="396.728516"/>
      <use xlink:href="#DejaVuSans-6e" x="457.910156"/>
     </g>
    </g>
    <g id="line2d_49">
     <path d="M 66.6 69.248563
L 76.6 69.248563
L 86.6 69.248563
" style="fill: none; stroke-dasharray: 5.55,2.4; stroke-dashoffset: 0; stroke: #000000; stroke-width: 1.5"/>
    </g>
    <g id="text_14">
     <!-- alerts -->
     <g transform="translate(94.6 72.748563) scale(0.1 -0.1)">
      <use xlink:href="#DejaVuSans-61"/>
      <use xlink:href="#DejaVuSans-6c" x="61.279297"/>
      <use xlink:href="#DejaVuSans-65" x="89.0625"/>
      <use xlink:href="#DejaVuSans-72" x="150.585938"/>
      <use xlink:href="#DejaVuSans-74" x="191.699219"/>
      <use xlink:href="#DejaVuSans-73" x="230.908203"/>
     </g>
    </g>
    <g id="patch_8">
     <path d="M 66.6 87.426688
L 86.6 87.426688
L 86.6 80.426688
L 66.6 80.426688
z
" style="fill: #0173b2"/>
    </g>
    <g id="text_15">
     <!-- O4 HL -->
     <g transform="translate(94.6 87.426688) scale(0.1 -0.1)">
      <defs>
       <path id="DejaVuSans-4f" d="M 2522 4238
Q 1834 4238 1429 3725
Q 1025 3213 1025 2328
Q 1025 1447 1429 934
Q 1834 422 2522 422
Q 3209 422 3611 934
Q 4013 1447 4013 2328
Q 4013 3213 3611 3725
Q 3209 4238 2522 4238
z
M 2522 4750
Q 3503 4750 4090 4092
Q 4678 3434 4678 2328
Q 4678 1225 4090 567
Q 3503 -91 2522 -91
Q 1538 -91 948 565
Q 359 1222 359 2328
Q 359 3434 948 4092
Q 1538 4750 2522 4750
z
" transform="scale(0.015625)"/>
       <path id="DejaVuSans-48" d="M 628 4666
L 1259 4666
L 1259 2753
L 3553 2753
L 3553 4666
L 4184 4666
L 4184 0
L 3553 0
L 3553 2222
L 1259 2222
L 1259 0
L 628 0
L 628 4666
z
" transform="scale(0.015625)"/>
      </defs>
      <use xlink:href="#DejaVuSans-4f"/>
      <use xlink:href="#DejaVuSans-34" x="78.710938"/>
      <use xlink:href="#DejaVuSans-20" x="142.333984"/>
      <use xlink:href="#DejaVuSans-48" x="174.121094"/>
      <use xlink:href="#DejaVuSans-4c" x="249.316406"/>
     </g>
    </g>
    <g id="patch_9">
     <path d="M 66.6 102.104813
L 86.6 102.104813
L 86.6 95.104813
L 66.6 95.104813
z
" style="fill: #de8f05"/>
    </g>
    <g id="text_16">
     <!-- O4 HLVK -->
     <g transform="translate(94.6 102.104813) scale(0.1 -0.1)">
      <defs>
       <path id="DejaVuSans-56" d="M 1831 0
L 50 4666
L 709 4666
L 2188 738
L 3669 4666
L 4325 4666
L 2547 0
L 1831 0
z
" transform="scale(0.015625)"/>
       <path id="DejaVuSans-4b" d="M 628 4666
L 1259 4666
L 1259 2694
L 3353 4666
L 4166 4666
L 1850 2491
L 4331 0
L 3500 0
L 1259 2247
L 1259 0
L 628 0
L 628 4666
z
" transform="scale(0.015625)"/>
      </defs>
      <use xlink:href="#DejaVuSans-4f"/>
      <use xlink:href="#DejaVuSans-34" x="78.710938"/>
      <use xlink:href="#DejaVuSans-20" x="142.333984"/>
      <use xlink:href="#DejaVuSans-48" x="174.121094"/>
      <use xlink:href="#DejaVuSans-4c" x="249.316406"/>
      <use xlink:href="#DejaVuSans-56" x="294.029297"/>
      <use xlink:href="#DejaVuSans-4b" x="362.4375"/>
     </g>
    </g>
    <g id="patch_10">
     <path d="M 66.6 116.782938
L 86.6 116.782938
L 86.6 109.782938
L 66.6 109.782938
z
" style="fill: #029e73"/>
    </g>
    <g id="text_17">
     <!-- O3 HLV -->
     <g transform="translate(94.6 116.782938) scale(0.1 -0.1)">
      <use xlink:href="#DejaVuSans-4f"/>
      <use xlink:href="#DejaVuSans-33" x="78.710938"/>
      <use xlink:href="#DejaVuSans-20" x="142.333984"/>
      <use xlink:href="#DejaVuSans-48" x="174.121094"/>
      <use xlink:href="#DejaVuSans-4c" x="249.316406"/>
      <use xlink:href="#DejaVuSans-56" x="294.029297"/>
     </g>
    </g>
   </g>
  </g>
  <g id="axes_2">
   <g id="matplotlib.axis_3">
    <g id="xtick_38">
     <g id="line2d_50">
      <defs>
       <path id="mf48c1f0dfc" d="M 0 0
L 0 -3.5
" style="stroke: #000000; stroke-width: 0.8"/>
      </defs>
      <g>
       <use xlink:href="#mf48c1f0dfc" x="115.568358" y="41.472" style="stroke: #000000; stroke-width: 0.8"/>
      </g>
     </g>
     <g id="text_18">
      <!-- 0.01 -->
      <g transform="translate(104.435545 32.392313) scale(0.1 -0.1)">
       <use xlink:href="#DejaVuSans-30"/>
       <use xlink:href="#DejaVuSans-2e" x="63.623047"/>
       <use xlink:href="#DejaVuSans-30" x="95.410156"/>
       <use xlink:href="#DejaVuSans-31" x="159.033203"/>
      </g>
     </g>
    </g>
    <g id="xtick_39">
     <g id="line2d_51">
      <g>
       <use xlink:href="#mf48c1f0dfc" x="207.3227" y="41.472" style="stroke: #000000; stroke-width: 0.8"/>
      </g>
     </g>
     <g id="text_19">
      <!-- 0.1 -->
      <g transform="translate(199.371137 32.392313) scale(0.1 -0.1)">
       <use xlink:href="#DejaVuSans-30"/>
       <use xlink:href="#DejaVuSans-2e" x="63.623047"/>
       <use xlink:href="#DejaVuSans-31" x="95.410156"/>
      </g>
     </g>
    </g>
    <g id="xtick_40">
     <g id="line2d_52">
      <g>
       <use xlink:href="#mf48c1f0dfc" x="310.439672" y="41.472" style="stroke: #000000; stroke-width: 0.8"/>
      </g>
     </g>
     <g id="text_20">
      <!-- 1 -->
      <g transform="translate(307.258422 32.392313) scale(0.1 -0.1)">
       <use xlink:href="#DejaVuSans-31"/>
      </g>
     </g>
    </g>
    <g id="xtick_41">
     <g id="line2d_53">
      <defs>
       <path id="m8f4659d3ea" d="M 0 0
L 0 -2
" style="stroke: #000000; stroke-width: 0.6"/>
      </defs>
      <g>
       <use xlink:href="#m8f4659d3ea" x="68.679242" y="41.472" style="stroke: #000000; stroke-width: 0.6"/>
      </g>
     </g>
    </g>
    <g id="xtick_42">
     <g id="line2d_54">
      <g>
       <use xlink:href="#m8f4659d3ea" x="79.863404" y="41.472" style="stroke: #000000; stroke-width: 0.6"/>
      </g>
     </g>
    </g>
    <g id="xtick_43">
     <g id="line2d_55">
      <g>
       <use xlink:href="#m8f4659d3ea" x="88.545119" y="41.472" style="stroke: #000000; stroke-width: 0.6"/>
      </g>
     </g>
    </g>
    <g id="xtick_44">
     <g id="line2d_56">
      <g>
       <use xlink:href="#m8f4659d3ea" x="95.643964" y="41.472" style="stroke: #000000; stroke-width: 0.6"/>
      </g>
     </g>
    </g>
    <g id="xtick_45">
     <g id="line2d_57">
      <g>
       <use xlink:href="#m8f4659d3ea" x="101.650474" y="41.472" style="stroke: #000000; stroke-width: 0.6"/>
      </g>
     </g>
    </g>
    <g id="xtick_46">
     <g id="line2d_58">
      <g>
       <use xlink:href="#m8f4659d3ea" x="106.857451" y="41.472" style="stroke: #000000; stroke-width: 0.6"/>
      </g>
     </g>
    </g>
    <g id="xtick_47">
     <g id="line2d_59">
      <g>
       <use xlink:href="#m8f4659d3ea" x="111.45376" y="41.472" style="stroke: #000000; stroke-width: 0.6"/>
      </g>
     </g>
    </g>
    <g id="xtick_48">
     <g id="line2d_60">
      <g>
       <use xlink:href="#m8f4659d3ea" x="142.735616" y="41.472" style="stroke: #000000; stroke-width: 0.6"/>
      </g>
     </g>
    </g>
    <g id="xtick_49">
     <g id="line2d_61">
      <g>
       <use xlink:href="#m8f4659d3ea" x="158.744064" y="41.472" style="stroke: #000000; stroke-width: 0.6"/>
      </g>
     </g>
    </g>
    <g id="xtick_50">
     <g id="line2d_62">
      <g>
       <use xlink:href="#m8f4659d3ea" x="170.181418" y="41.472" style="stroke: #000000; stroke-width: 0.6"/>
      </g>
     </g>
    </g>
    <g id="xtick_51">
     <g id="line2d_63">
      <g>
       <use xlink:href="#m8f4659d3ea" x="179.112252" y="41.472" style="stroke: #000000; stroke-width: 0.6"/>
      </g>
     </g>
    </g>
    <g id="xtick_52">
     <g id="line2d_64">
      <g>
       <use xlink:href="#m8f4659d3ea" x="186.456224" y="41.472" style="stroke: #000000; stroke-width: 0.6"/>
      </g>
     </g>
    </g>
    <g id="xtick_53">
     <g id="line2d_65">
      <g>
       <use xlink:href="#m8f4659d3ea" x="192.703943" y="41.472" style="stroke: #000000; stroke-width: 0.6"/>
      </g>
     </g>
    </g>
    <g id="xtick_54">
     <g id="line2d_66">
      <g>
       <use xlink:href="#m8f4659d3ea" x="198.148289" y="41.472" style="stroke: #000000; stroke-width: 0.6"/>
      </g>
     </g>
    </g>
    <g id="xtick_55">
     <g id="line2d_67">
      <g>
       <use xlink:href="#m8f4659d3ea" x="202.978199" y="41.472" style="stroke: #000000; stroke-width: 0.6"/>
      </g>
     </g>
    </g>
    <g id="xtick_56">
     <g id="line2d_68">
      <g>
       <use xlink:href="#m8f4659d3ea" x="236.600274" y="41.472" style="stroke: #000000; stroke-width: 0.6"/>
      </g>
     </g>
    </g>
    <g id="xtick_57">
     <g id="line2d_69">
      <g>
       <use xlink:href="#m8f4659d3ea" x="254.417158" y="41.472" style="stroke: #000000; stroke-width: 0.6"/>
      </g>
     </g>
    </g>
    <g id="xtick_58">
     <g id="line2d_70">
      <g>
       <use xlink:href="#m8f4659d3ea" x="267.411093" y="41.472" style="stroke: #000000; stroke-width: 0.6"/>
      </g>
     </g>
    </g>
    <g id="xtick_59">
     <g id="line2d_71">
      <g>
       <use xlink:href="#m8f4659d3ea" x="277.687357" y="41.472" style="stroke: #000000; stroke-width: 0.6"/>
      </g>
     </g>
    </g>
    <g id="xtick_60">
     <g id="line2d_72">
      <g>
       <use xlink:href="#m8f4659d3ea" x="286.198945" y="41.472" style="stroke: #000000; stroke-width: 0.6"/>
      </g>
     </g>
    </g>
    <g id="xtick_61">
     <g id="line2d_73">
      <g>
       <use xlink:href="#m8f4659d3ea" x="293.463892" y="41.472" style="stroke: #000000; stroke-width: 0.6"/>
      </g>
     </g>
    </g>
    <g id="xtick_62">
     <g id="line2d_74">
      <g>
       <use xlink:href="#m8f4659d3ea" x="299.797716" y="41.472" style="stroke: #000000; stroke-width: 0.6"/>
      </g>
     </g>
    </g>
    <g id="xtick_63">
     <g id="line2d_75">
      <g>
       <use xlink:href="#m8f4659d3ea" x="305.408106" y="41.472" style="stroke: #000000; stroke-width: 0.6"/>
      </g>
     </g>
    </g>
    <g id="xtick_64">
     <g id="line2d_76">
      <g>
       <use xlink:href="#m8f4659d3ea" x="343.505057" y="41.472" style="stroke: #000000; stroke-width: 0.6"/>
      </g>
     </g>
    </g>
    <g id="xtick_65">
     <g id="line2d_77">
      <g>
       <use xlink:href="#m8f4659d3ea" x="362.547209" y="41.472" style="stroke: #000000; stroke-width: 0.6"/>
      </g>
     </g>
    </g>
    <g id="xtick_66">
     <g id="line2d_78">
      <g>
       <use xlink:href="#m8f4659d3ea" x="375.850255" y="41.472" style="stroke: #000000; stroke-width: 0.6"/>
      </g>
     </g>
    </g>
    <g id="xtick_67">
     <g id="line2d_79">
      <g>
       <use xlink:href="#m8f4659d3ea" x="386.043799" y="41.472" style="stroke: #000000; stroke-width: 0.6"/>
      </g>
     </g>
    </g>
    <g id="xtick_68">
     <g id="line2d_80">
      <g>
       <use xlink:href="#m8f4659d3ea" x="394.291955" y="41.472" style="stroke: #000000; stroke-width: 0.6"/>
      </g>
     </g>
    </g>
    <g id="xtick_69">
     <g id="line2d_81">
      <g>
       <use xlink:href="#m8f4659d3ea" x="401.210295" y="41.472" style="stroke: #000000; stroke-width: 0.6"/>
      </g>
     </g>
    </g>
    <g id="xtick_70">
     <g id="line2d_82">
      <g>
       <use xlink:href="#m8f4659d3ea" x="407.163186" y="41.472" style="stroke: #000000; stroke-width: 0.6"/>
      </g>
     </g>
    </g>
    <g id="xtick_71">
     <g id="line2d_83">
      <g>
       <use xlink:href="#m8f4659d3ea" x="412.383881" y="41.472" style="stroke: #000000; stroke-width: 0.6"/>
      </g>
     </g>
    </g>
    <g id="text_21">
     <!-- Redshift -->
     <g transform="translate(215.864688 20.793875) scale(0.1 -0.1)">
      <defs>
       <path id="DejaVuSans-52" d="M 2841 2188
Q 3044 2119 3236 1894
Q 3428 1669 3622 1275
L 4263 0
L 3584 0
L 2988 1197
Q 2756 1666 2539 1819
Q 2322 1972 1947 1972
L 1259 1972
L 1259 0
L 628 0
L 628 4666
L 2053 4666
Q 2853 4666 3247 4331
Q 3641 3997 3641 3322
Q 3641 2881 3436 2590
Q 3231 2300 2841 2188
z
M 1259 4147
L 1259 2491
L 2053 2491
Q 2509 2491 2742 2702
Q 2975 2913 2975 3322
Q 2975 3731 2742 3939
Q 2509 4147 2053 4147
L 1259 4147
z
" transform="scale(0.015625)"/>
       <path id="DejaVuSans-68" d="M 3513 2113
L 3513 0
L 2938 0
L 2938 2094
Q 2938 2591 2744 2837
Q 2550 3084 2163 3084
Q 1697 3084 1428 2787
Q 1159 2491 1159 1978
L 1159 0
L 581 0
L 581 4863
L 1159 4863
L 1159 2956
Q 1366 3272 1645 3428
Q 1925 3584 2291 3584
Q 2894 3584 3203 3211
Q 3513 2838 3513 2113
z
" transform="scale(0.015625)"/>
      </defs>
      <use xlink:href="#DejaVuSans-52"/>
      <use xlink:href="#DejaVuSans-65" x="64.982422"/>
      <use xlink:href="#DejaVuSans-64" x="126.505859"/>
      <use xlink:href="#DejaVuSans-73" x="189.982422"/>
      <use xlink:href="#DejaVuSans-68" x="242.082031"/>
      <use xlink:href="#DejaVuSans-69" x="305.460938"/>
      <use xlink:href="#DejaVuSans-66" x="333.244141"/>
      <use xlink:href="#DejaVuSans-74" x="366.699219"/>
     </g>
    </g>
   </g>
   <g id="patch_11">
    <path d="M 57.6 307.584
L 57.6 41.472
" style="fill: none; stroke: #000000; stroke-width: 0.8; stroke-linejoin: miter; stroke-linecap: square"/>
   </g>
   <g id="patch_12">
    <path d="M 414.72 307.584
L 414.72 41.472
" style="fill: none; stroke: #000000; stroke-width: 0.8; stroke-linejoin: miter; stroke-linecap: square"/>
   </g>
   <g id="patch_13">
    <path d="M 57.6 307.584
L 414.72 307.584
" style="fill: none; stroke: #000000; stroke-width: 0.8; stroke-linejoin: miter; stroke-linecap: square"/>
   </g>
   <g id="patch_14">
    <path d="M 57.6 41.472
L 414.72 41.472
" style="fill: none; stroke: #000000; stroke-width: 0.8; stroke-linejoin: miter; stroke-linecap: square"/>
   </g>
  </g>
 </g>
 <defs>
  <clipPath id="p70bb40b02e">
   <rect x="57.6" y="41.472" width="357.12" height="266.112"/>
  </clipPath>
 </defs>
</svg>
